<svg version="1.1" xmlns="http://www.w3.org/2000/svg" xmlns:xlink="http://www.w3.org/1999/xlink" x="0px" y="0px" viewBox="0 0 1000 1000" enable-background="new 0 0 1000 1000" xml:space="preserve">
<g><path d="M634,854.8C588.7,873.6,539.1,884,487,884C275,884.1,103,712.1,103,500c0-50.2,9.8-98,27.3-141.9l57.8,35.4c14.4,8.8,25.7,2.2,25.1-14.6l-6.1-172.2c-0.6-16.8-13.6-24.8-28.9-17.7L22,261.7c-15.3,7.1-16,20.1-1.6,29L75,324.1c-23.1,54-36,113.4-36,175.9c0,247.5,200.6,448.1,448,448.1c70,0,136.3-16.1,195.4-44.8c0,0,29.7-24.7,6.8-50.5C671.9,833.4,634,854.8,634,854.8z"/><path d="M977.4,672.9l-66.5-27.7c15.6-45.6,24.2-94.4,24.2-145.2c0-247.5-200.6-448.1-448.1-448.1c-70,0-136.3,16.1-195.4,44.8c0,0-27.6,20.2-9.1,46c15.8,22.2,57.5,2.5,57.5,2.5C385.4,126.4,435,116,487,116c212.1,0,384.1,171.9,384.1,384c0,42.1-7,82.6-19.5,120.5l-55.8-23.3c-15.6-6.5-25.7,1.7-22.5,18.3l32.6,169.2c3.2,16.6,17.3,22.4,31.3,13l143.2-95.9C994.3,692.4,993,679.4,977.4,672.9z"/></g>
</svg>
